<?xml version="1.0" encoding="utf-8"?>
<!-- Generator: Adobe Illustrator 26.0.1, SVG Export Plug-In . SVG Version: 6.00 Build 0)  -->
<svg version="1.0" id="Layer_1" xmlns="http://www.w3.org/2000/svg" xmlns:xlink="http://www.w3.org/1999/xlink" x="0px" y="0px"
	 viewBox="0 0 523.86 272.73" style="enable-background:new 0 0 523.86 272.73;" xml:space="preserve">
<style type="text/css">
	.st0{opacity:0.92;fill:url(#SVGID_1_);}
	.st1{fill:#0000FF;}
	.st2{font-family:'LucidaCalligraphy-Italic';}
	.st3{font-size:61.5573px;}
	.st4{font-family:'MonotypeCorsiva';}
	.st5{font-size:30px;}
	.st6{fill:none;stroke:#0000FF;stroke-width:0.5;stroke-miterlimit:10;}
</style>
<linearGradient id="SVGID_1_" gradientUnits="userSpaceOnUse" x1="159.0906" y1="130.7814" x2="335.0491" y2="130.7814">
	<stop  offset="0" style="stop-color:#FFFFFF"/>
	<stop  offset="0.9558" style="stop-color:#0000FF"/>
</linearGradient>
<path class="st0" d="M290.78,212.84l-87.5,0.1l-44.19-75.52L202.4,61.8c0,0,31.95,53.64,87.5-0.1s44.19,75.52,44.19,75.52
	L290.78,212.84z"/>
<path class="st1" d="M379.24,213.1l-37.29,0.78l-19.32-31.91l17.98-32.68c0,0,7.24,57.18,37.29-0.78s19.32,31.91,19.32,31.91
	L379.24,213.1z"/>
<text transform="matrix(0.7793 0 0 1 108.0234 226.0434)" class="st2 st3">El</text>
<text transform="matrix(1 0 0 1 173.6588 240.5632)" class="st4 st5">majesty corp</text>
<path class="st6" d="M463.64,264.77H62.5c-21.25,0-38.64-17.39-38.64-38.64V72.73c0-21.25,17.39-38.64,38.64-38.64h401.14
	c21.25,0,38.64,17.39,38.64,38.64v153.41C502.27,247.39,484.89,264.77,463.64,264.77z"/>
</svg>
